{"title":"Sta dixtya tou pepromenou ep 70 DVB-T by Ari Gr Subs","uid":12552869,"size":350990882,"categoryP":"video","categoryS":"tv_shows","magnet":"?xt=urn:btih:951c8a5dfe8ea81ed8e947fa290087178040e1dd&amp;dn=Sta+dixtya+tou+pepromenou+ep+70+DVB-T+by+Ari+Gr+Subs&amp;tr=udp%3A%2F%2Ftracker.leechers-paradise.org%3A6969&amp;tr=udp%3A%2F%2Fzer0day.ch%3A1337&amp;tr=udp%3A%2F%2Fopen.demonii.com%3A1337&amp;tr=udp%3A%2F%2Ftracker.coppersurfer.tk%3A6969&amp;tr=udp%3A%2F%2Fexodus.desync.com%3A6969","seeders":0,"leechers":0,"uploader":"Aris2015","files":1,"time":1444586481,"description":"Î•Î Î•Î™Î£ÎŸÎ”Î™ÎŸ 70\r\n\r\nÎŸ Î–Î¹Î³Î¹Î¬ Ï€ÏÎ¿ÏƒÏ€Î±Î¸ÎµÎ¯ Î½Î± Ï€ÎµÎ¯ÏƒÎµÎ¹ Ï„Î¿Î½ ÎšÎ±Ï‡ÏÎ±Î¼Î¬Î½ Î½Î± Ï€Î±Î½Ï„ÏÎµÏ…Ï„ÎµÎ¯ Ï„Î·Î½ ÎÏ„ÎµÏ†Î½Î­ Î³Î¹Î± Ï‡Î¬ÏÎ· Ï„Ï‰Î½ Ï€Î±Î¹Î´Î¹ÏŽÎ½ Ï„Î¿Ï…. Î¤Î¿Ï… ÎµÎ¾Î·Î³ÎµÎ¯ Ï€ÏŒÏƒÎ¿ Î­Ï‡ÎµÎ¹ Î±Î»Î»Î¬Î¾ÎµÎ¹ Î· ÎºÎ¿Ï€Î­Î»Î±, Ï€Ï‰Ï‚ Î­Ï‡ÎµÎ¹ ÏƒÏ„Î±Î¸ÎµÎ¯ ÏƒÏ„Î·Î½ Î¿Î¹ÎºÎ¿Î³Î­Î½ÎµÎ¹Î± ÎºÎ±Î¹ Î¼Îµ Ï€ÏŒÏƒÎ· Î±Î³Î¬Ï€Î· Î¼ÎµÎ³Î±Î»ÏŽÎ½ÎµÎ¹ Ï„Î± Î´Ï…Î¿ Ï€Î±Î¹Î´Î¹Î¬. ÎŸ ÎšÎ±Ï‡ÏÎ±Î¼Î¬Î½ Î¸Î± Î±Î½Î±Î³ÎºÎ±ÏƒÏ„ÎµÎ¯ Î½Î± Ï…Ï€Î¿Ï‡Ï‰ÏÎ®ÏƒÎµÎ¹ ÎºÎ±Î¹ Î· ÎšÎ¹Î³Î¹Î¼Î­Ï„ Î¼Îµ Ï„Î·Î½ ÎÏ„ÎµÏ†Î½Î­ Î¸Î± Î¿ÏÎ³Î±Î½ÏŽÏƒÎ¿Ï…Î½ Ï„Î¿Î½ Î³Î¬Î¼Î¿ Ï‡Ï‰ÏÎ¯Ï‚ ÎºÎ±Î¸Ï…ÏƒÏ„Î­ÏÎ·ÏƒÎ·. ÎŸ ÎœÎ±ÎºÏƒÎ¿ÏÏ„ ÎµÏ„Î¿Î¹Î¼Î¬Î¶ÎµÎ¹ Î¼Î¹Î± Î­ÎºÏ€Î»Î·Î¾Î· ÏƒÏ„Î·Î½ Î•Î»Î¯Ï†.\r\n \nhttp://imgur.com/kpUq7dB\r\n\r\nComplete name               : C:Userssta.dixtya.tou.pepromenou.ep.70.DVB-T.By.Ari.mp4\r\nFormat                      : MPEG-4\r\nFormat profile              : Base Media\r\nCodec ID                    : isom\r\nFile size                   : 335 MiB\r\nDuration                    : 59mn 11s\r\nOverall bit rate            : 791 Kbps\r\nWriting application         : Lavf54.59.106\r\n\r\nVideo\r\nID                          : 1\r\nFormat                      : AVC\r\nFormat/Info                 : Advanced Video Codec\r\nFormat profile              :   \r\nFormat settings, CABAC      : Yes\r\nFormat settings, ReFrames   : 4 frames\r\nCodec ID                    : avc1\r\nCodec ID/Info               : Advanced Video Coding\r\nDuration                    : 59mn 11s\r\nBit rate                    : 657 Kbps\r\nWidth                       : 640 pixels\r\nHeight                      : 352 pixels\r\nDisplay aspect ratio        : 16:9\r\nFrame rate mode             : Constant\r\nFrame rate                  : 25.000 fps\r\nColor space                 : YUV\r\nChroma subsampling          : 4:2:0\r\nBit depth                   : 8 bits\r\nScan type                   : Progressive\r\nBits/(Pixel*Frame)          : 0.117\r\nStream size                 : 278 MiB (83%)\r\nColor range                 : Limited\r\nColor primaries             : BT.601 NTSC\r\nTransfer characteristics    : BT.709\r\nMatrix coefficients         : BT.601\r\n\r\nAudio\r\nID                          : 2\r\nFormat                      : AAC\r\nFormat/Info                 : Advanced Audio Codec\r\nFormat profile              : LC\r\nCodec ID                    : 40\r\nDuration                    : 59mn 11s\r\nBit rate mode               : Constant\r\nBit rate                    : 128 Kbps\r\nChannel(s)                  : 2 channels\r\nChannel positions           : Front: L R\r\nSampling rate               : 48.0 KHz\r\nCompression mode            : Lossy\r\nStream size                 : 54.2 MiB (16%)","torrent":{"xt":"urn:btih:951c8a5dfe8ea81ed8e947fa290087178040e1dd","amp;dn":"Sta+dixtya+tou+pepromenou+ep+70+DVB-T+by+Ari+Gr+Subs","amp;tr":["udp%3A%2F%2Ftracker.leechers-paradise.org%3A6969","udp%3A%2F%2Fzer0day.ch%3A1337","udp%3A%2F%2Fopen.demonii.com%3A1337","udp%3A%2F%2Ftracker.coppersurfer.tk%3A6969","udp%3A%2F%2Fexodus.desync.com%3A6969"],"infoHash":"951c8a5dfe8ea81ed8e947fa290087178040e1dd","infoHashBuffer":{"type":"Buffer","data":[149,28,138,93,254,142,168,30,216,233,71,250,41,0,135,23,128,64,225,221]},"announce":[],"urlList":[]}}